<svg id="Capa_1" enable-background="new 0 0 510.818 510.818" height="512" viewBox="0 0 510.818 510.818" width="512" xmlns="http://www.w3.org/2000/svg"><g id="XMLID_2731_"><path id="XMLID_2723_" d="m225.409 240.409c0-18.814 0-58.912 0-69.871-35.075 12.398-60 45.811-60 84.871 0 39.044 24.909 72.468 60 84.871v62.125l14.925 18.004 15.075-15 15-82.5-15-82.5c-10.492 0-19.508 0-30 0z" fill="#e6f2ff"/><path id="XMLID_2680_" d="m285.409 340.28c35.074-12.397 60-45.811 60-84.871 0-39.044-24.909-72.468-60-84.871v69.871c-10.492 0-19.508 0-30 0v165l15.075 15 14.925-18.004c0-7.545 0-54.552 0-62.125z" fill="#cdf"/><path id="XMLID_2676_" d="m255.409 405.409c-82.841 0-150-67.154-150-150 0-82.841 67.155-150 150-150l15-52.5-15-52.5c-13.915 0-27.808 0-41.712 0-3.125 12.499-5.81 23.239-8.935 35.738-12.749 2.935-25.224 6.983-37.268 12.099-9.872-8.272-18.354-15.381-28.226-23.653-8.156 5.926-59.28 43.069-67.49 49.035 4.824 11.962 8.969 22.24 13.794 34.203-8.574 9.858-16.287 20.452-23.036 31.656-12.855-.892-23.901-1.657-36.757-2.548-3.115 9.589-22.643 69.689-25.779 79.341 10.931 6.84 20.324 12.718 31.255 19.558-1.127 13.052-1.128 26.084 0 39.143-10.931 6.84-20.324 12.717-31.255 19.558 3.116 9.589 22.644 69.687 25.78 79.339 12.855-.891 23.901-1.656 36.756-2.547 6.728 11.17 14.437 21.768 23.036 31.656-4.824 11.963-8.969 22.241-13.794 34.203 8.156 5.926 59.28 43.07 67.49 49.036 9.872-8.272 18.354-15.382 28.226-23.654 12.041 5.114 24.515 9.163 37.268 12.098 3.124 12.499 5.81 23.239 8.935 35.739h41.712l15-52.5z" fill="#6cf"/><path id="XMLID_2529_" d="m306.055 474.67c12.749-2.935 25.224-6.981 37.268-12.098 9.872 8.272 18.354 15.382 28.226 23.654 8.156-5.927 59.281-43.071 67.491-49.036-4.824-11.962-8.969-22.24-13.794-34.203 8.589-9.877 16.3-20.474 23.035-31.656 12.856.891 23.902 1.656 36.758 2.547 3.116-9.589 22.643-69.687 25.779-79.339-10.931-6.841-20.324-12.718-31.255-19.559 1.128-13.055 1.129-26.075 0-39.143 10.931-6.84 20.324-12.718 31.255-19.558-3.115-9.589-22.643-69.688-25.779-79.34-12.855.891-23.902 1.656-36.758 2.547-6.727-11.169-14.435-21.767-23.035-31.656 4.824-11.963 8.969-22.241 13.794-34.203-8.156-5.927-59.28-43.07-67.491-49.035-9.872 8.272-18.354 15.381-28.226 23.653-12.042-5.114-24.515-9.163-37.268-12.099-3.125-12.499-5.81-23.239-8.934-35.738-13.915 0-27.808 0-41.712 0v105c82.84 0 150 67.155 150 150 0 82.84-67.155 150-150 150v105h41.712c3.125-12.499 5.81-23.239 8.934-35.738z" fill="#4596e6"/></g></svg>