<svg height="512pt" viewBox="0 0 512 512" width="512pt" xmlns="http://www.w3.org/2000/svg" xmlns:xlink="http://www.w3.org/1999/xlink"><linearGradient id="a" gradientUnits="userSpaceOnUse" x1="0" x2="512" y1="256" y2="256"><stop offset="0" stop-color="#00f38d"/><stop offset="1" stop-color="#009eff"/></linearGradient><path d="m512 256c0 141.386719-114.613281 256-256 256s-256-114.613281-256-256 114.613281-256 256-256 256 114.613281 256 256zm0 0" fill="url(#a)"/><g fill="#fff"><path d="m203.578125 222.28125-18.722656 19.699219 66.960937 63.632812.746094.710938 140.375-156.292969.667969-.746094-20.222657-18.160156-122.363281 136.238281zm0 0"/><path d="m418.144531 278.007812v-44.015624l-43.117187-11.46875c-1.0625-3.785157-2.355469-7.621094-3.84375-11.414063l-.589844-1.511719-20.9375 23.308594.121094.511719c.234375.96875.457031 1.941406.660156 2.921875l1.703125 8.21875 38.824219 10.328125v2.226562l-38.824219 10.328125-1.703125 8.21875c-2.441406 11.777344-7.078125 22.9375-13.792969 33.160156l-4.589843 6.992188 19.84375 34.464844-1.621094 1.621094-34.464844-19.84375-6.988281 4.589843c-10.230469 6.714844-21.386719 11.355469-33.164063 13.792969l-8.21875 1.699219-10.328125 38.828125h-2.226562l-10.324219-38.828125-8.222656-1.699219c-11.773438-2.4375-22.933594-7.078125-33.160156-13.792969l-6.992188-4.589843-34.464844 19.84375-1.621094-1.621094 19.84375-34.464844-4.589843-6.992188c-6.710938-10.222656-11.351563-21.378906-13.792969-33.160156l-1.699219-8.21875-38.828125-10.328125v-2.226562l38.828125-10.328125 1.699219-8.21875c2.441406-11.777344 7.082031-22.933594 13.792969-33.160156l4.59375-6.992188-19.847657-34.464844 1.621094-1.621094 34.464844 19.84375 6.992188-4.589843c10.226562-6.714844 21.382812-11.351563 33.160156-13.792969l8.222656-1.699219 10.324219-38.828125h2.226562l10.328125 38.828125 8.21875 1.699219c9.945313 2.058594 19.5 5.714844 28.40625 10.867188l.703125.40625 18.449219-20.542969-.996094-.632813c-10.230468-6.511718-21.242187-11.453125-32.746094-14.6875l-11.46875-43.117187h-44.015624l-11.46875 43.117187c-9.367188 2.632813-18.441407 6.410156-26.992188 11.230469l-38.300781-22.050781-31.074219 31.078125 22.050781 38.296875c-4.820312 8.550781-8.597656 17.625-11.234375 26.996094l-43.117187 11.46875v44.015624l43.117187 11.464844c2.636719 9.371094 6.414063 18.445313 11.234375 26.996094l-22.050781 38.296875 31.074219 31.078125 38.300781-22.050781c8.550781 4.820312 17.625 8.597656 26.992188 11.230469l11.46875 43.117187h44.015624l11.46875-43.117187c9.367188-2.632813 18.445313-6.410157 26.992188-11.230469l38.300781 22.050781 31.074219-31.078125-22.050781-38.296875c4.824219-8.550781 8.601562-17.625 11.234375-26.992188zm0 0"/></g></svg>